<svg width="54" height="54" viewBox="0 0 54 54" fill="none" xmlns="http://www.w3.org/2000/svg"><path d="M4.35522 38.3142H16.3059L14.9994 43.5388H14.8077C13.6531 43.5402 12.5461 43.9994 11.7297 44.8156C10.9132 45.6318 10.4539 46.7384 10.4525 47.8927C10.4525 48.1237 10.5443 48.3452 10.7076 48.5085C10.871 48.6718 11.0925 48.7635 11.3236 48.7635H17.582C17.8831 50.1307 18.6078 51.3682 19.6531 52.2999C20.6983 53.2316 22.0108 53.8101 23.4039 53.953C24.797 54.096 26.1997 53.7961 27.4125 53.0961C28.6253 52.3961 29.5863 51.3316 30.159 50.054L30.3558 49.6143C30.8202 48.5826 31.5729 47.707 32.5232 47.0927C33.4735 46.4784 34.5811 46.1516 35.7128 46.1516C36.8444 46.1516 37.952 46.4784 38.9024 47.0927C39.8527 47.707 40.6053 48.5826 41.0697 49.6143L41.2665 50.0549C41.9219 51.5252 43.0883 52.7082 44.5495 53.3844C46.0107 54.0607 47.6676 54.1844 49.2131 53.7326C50.7586 53.2807 52.0877 52.2841 52.9543 50.9273C53.8208 49.5706 54.1658 47.9457 53.9254 46.3541V46.3297L52.2495 37.2544C52.0673 36.0485 51.5698 34.912 50.8074 33.9599C50.0449 33.0078 49.0446 32.2738 47.9074 31.8321V30.4772C47.9062 30.1119 47.8281 29.7509 47.678 29.4178C47.5279 29.0847 47.3092 28.787 47.0363 28.5441V4.35388C47.0349 3.19959 46.5756 2.09296 45.7592 1.27675C44.9427 0.460538 43.8358 0.00138267 42.6811 0H4.35522C3.20056 0.00138267 2.0936 0.460538 1.27714 1.27675C0.460679 2.09296 0.00138309 3.19959 0 4.35388V33.9603C0.00138309 35.1146 0.460679 36.2212 1.27714 37.0374C2.0936 37.8536 3.20056 38.3128 4.35522 38.3142ZM18.1003 38.3142H18.98L18.0219 43.5388H16.7937L18.1003 38.3142ZM14.8077 45.2804H17.6979L17.5001 46.3532C17.4666 46.5748 17.4442 46.798 17.4331 47.022H12.3436C12.5244 46.513 12.8583 46.0724 13.2994 45.7606C13.7406 45.4488 14.2674 45.2811 14.8077 45.2804ZM50.5327 37.5453L52.206 46.631C52.3115 47.3233 52.2661 48.0303 52.0729 48.7034C51.8797 49.3766 51.5433 50.0001 51.0867 50.5312C50.5464 51.1601 49.8561 51.6426 49.0796 51.9339C48.3032 52.2252 47.4658 52.3158 46.645 52.1975C45.8242 52.0791 45.0465 51.7556 44.3841 51.2569C43.7216 50.7581 43.1958 50.1003 42.8553 49.3443L42.6593 48.9037C42.0576 47.5648 41.0817 46.4283 39.849 45.6309C38.6163 44.8335 37.1793 44.4093 35.711 44.4093C34.2428 44.4093 32.8058 44.8335 31.5731 45.6309C30.3403 46.4283 29.3644 47.5648 28.7627 48.9037L28.5667 49.3434C28.2261 50.0988 27.7004 50.756 27.0383 51.2543C26.3762 51.7527 25.5991 52.076 24.7788 52.1944C23.9585 52.3128 23.1216 52.2225 22.3456 51.9318C21.5695 51.641 20.8793 51.1593 20.3389 50.5312C19.8831 50.0021 19.5469 49.3809 19.3533 48.7101C19.1597 48.0392 19.1132 47.3345 19.217 46.644L20.8972 37.52C21.0858 36.2808 21.7146 35.1509 22.6684 34.3373C23.6223 33.5237 24.8374 33.0807 26.0912 33.0895H45.3343C46.5921 33.0825 47.8102 33.5293 48.7651 34.3478C49.72 35.1662 50.3476 36.3015 50.5327 37.5453ZM28.7444 31.348H26.0912C25.8134 31.3497 25.5359 31.3677 25.2602 31.402V30.4772C25.2602 30.2462 25.352 30.0248 25.5154 29.8615C25.6787 29.6982 25.9003 29.6064 26.1313 29.6064H27.8734C28.1044 29.6064 28.3259 29.6982 28.4893 29.8615C28.6527 30.0248 28.7444 30.2462 28.7444 30.4772V31.348ZM45.3343 31.348H42.6811V30.4772C42.6811 30.2462 42.7729 30.0248 42.9362 29.8615C43.0996 29.6982 43.3211 29.6064 43.5522 29.6064H45.2942C45.5253 29.6064 45.7468 29.6982 45.9102 29.8615C46.0735 30.0248 46.1653 30.2462 46.1653 30.4772V31.402C45.8896 31.3677 45.6121 31.3497 45.3343 31.348ZM1.74209 4.35388C1.74209 3.66105 2.0174 2.99659 2.50745 2.50669C2.99751 2.01678 3.66217 1.74155 4.35522 1.74155H42.6811C43.3742 1.74155 44.0388 2.01678 44.5289 2.50669C45.0189 2.99659 45.2942 3.66105 45.2942 4.35388V27.8649H43.5522V4.35388C43.5522 4.12294 43.4604 3.90145 43.297 3.73815C43.1337 3.57485 42.9121 3.48311 42.6811 3.48311H4.35522C4.1242 3.48311 3.90265 3.57485 3.73929 3.73815C3.57594 3.90145 3.48417 4.12294 3.48417 4.35388V30.4772C3.48417 30.7081 3.57594 30.9296 3.73929 31.0929C3.90265 31.2562 4.1242 31.348 4.35522 31.348H21.7761V29.6064H5.22626V5.22466H41.8101V28.5441C41.5371 28.787 41.3185 29.0847 41.1684 29.4178C41.0183 29.7509 40.9402 30.1119 40.939 30.4772V31.348H36.5838C36.5838 30.6551 36.3085 29.9907 35.8184 29.5008C35.3284 29.0109 34.6637 28.7356 33.9707 28.7356H33.5352C33.4196 28.7356 33.3089 28.6898 33.2272 28.6081C33.1455 28.5265 33.0996 28.4157 33.0996 28.3002C33.0996 28.1848 33.1455 28.074 33.2272 27.9924C33.3089 27.9107 33.4196 27.8649 33.5352 27.8649H35.7128C36.6368 27.8649 37.523 27.4979 38.1764 26.8447C38.8299 26.1915 39.1969 25.3055 39.1969 24.3818V23.511H37.4548V24.3818C37.4548 24.8436 37.2713 25.2866 36.9446 25.6132C36.6179 25.9398 36.1748 26.1233 35.7128 26.1233H33.5352C32.9576 26.1233 32.4037 26.3527 31.9954 26.7609C31.587 27.1692 31.3575 27.7229 31.3575 28.3002C31.3575 28.8776 31.587 29.4313 31.9954 29.8396C32.4037 30.2478 32.9576 30.4772 33.5352 30.4772H33.9707C34.2017 30.4772 34.4232 30.5689 34.5866 30.7322C34.75 30.8955 34.8417 31.117 34.8417 31.348H30.4865V30.4772C30.4865 29.7844 30.2112 29.1199 29.7211 28.63C29.2311 28.1401 28.5664 27.8649 27.8734 27.8649H26.1313C25.4382 27.8649 24.7736 28.1401 24.2835 28.63C23.7935 29.1199 23.5182 29.7844 23.5182 30.4772V31.8312C22.49 32.2289 21.5719 32.8668 20.8408 33.6917C20.1096 34.5166 19.5866 35.5044 19.3154 36.5726H4.35522C3.66217 36.5726 2.99751 36.2974 2.50745 35.8075C2.0174 35.3176 1.74209 34.6531 1.74209 33.9603V4.35388Z" fill="#7D12FF"/><path d="M32.2286 37.4434H30.4865V35.7018C30.4865 35.4709 30.3947 35.2494 30.2314 35.0861C30.068 34.9228 29.8465 34.8311 29.6154 34.8311H26.1313C25.9003 34.8311 25.6787 34.9228 25.5153 35.0861C25.352 35.2494 25.2602 35.4709 25.2602 35.7018V37.4434H23.5181C23.2871 37.4434 23.0656 37.5351 22.9022 37.6984C22.7389 37.8617 22.6471 38.0832 22.6471 38.3142V41.7973C22.6471 42.0282 22.7389 42.2497 22.9022 42.413C23.0656 42.5763 23.2871 42.668 23.5181 42.668H25.2602V44.4096C25.2602 44.6405 25.352 44.862 25.5153 45.0253C25.6787 45.1886 25.9003 45.2804 26.1313 45.2804H29.6154C29.8465 45.2804 30.068 45.1886 30.2314 45.0253C30.3947 44.862 30.4865 44.6405 30.4865 44.4096V42.668H32.2286C32.4596 42.668 32.6811 42.5763 32.8445 42.413C33.0078 42.2497 33.0996 42.0282 33.0996 41.7973V38.3142C33.0996 38.0832 33.0078 37.8617 32.8445 37.6984C32.6811 37.5351 32.4596 37.4434 32.2286 37.4434ZM31.3575 40.9265H29.6154C29.3844 40.9265 29.1629 41.0182 28.9995 41.1815C28.8362 41.3448 28.7444 41.5663 28.7444 41.7973V43.5388H27.0023V41.7973C27.0023 41.5663 26.9105 41.3448 26.7472 41.1815C26.5838 41.0182 26.3623 40.9265 26.1313 40.9265H24.3892V39.1849H26.1313C26.3623 39.1849 26.5838 39.0932 26.7472 38.9299C26.9105 38.7666 27.0023 38.5451 27.0023 38.3142V36.5726H28.7444V38.3142C28.7444 38.5451 28.8362 38.7666 28.9995 38.9299C29.1629 39.0932 29.3844 39.1849 29.6154 39.1849H31.3575V40.9265Z" fill="#7D12FF"/><path d="M40.939 36.5727C40.9414 36.9719 41.0366 37.365 41.2169 37.7212C40.8606 37.541 40.4673 37.4459 40.068 37.4434C39.3749 37.4434 38.7103 37.7187 38.2202 38.2086C37.7301 38.6985 37.4548 39.3629 37.4548 40.0558C37.4548 40.7486 37.7301 41.4131 38.2202 41.903C38.7103 42.3929 39.3749 42.6681 40.068 42.6681C40.4673 42.6657 40.8606 42.5706 41.2169 42.3903C41.0366 42.7465 40.9414 43.1397 40.939 43.5389C40.939 44.2317 41.2143 44.8962 41.7044 45.3861C42.1944 45.876 42.8591 46.1512 43.5521 46.1512C44.2452 46.1512 44.9098 45.876 45.3999 45.3861C45.89 44.8962 46.1653 44.2317 46.1653 43.5389C46.1628 43.1397 46.0677 42.7465 45.8874 42.3903C46.2437 42.5706 46.637 42.6657 47.0363 42.6681C47.7294 42.6681 48.394 42.3929 48.8841 41.903C49.3741 41.4131 49.6494 40.7486 49.6494 40.0558C49.6494 39.3629 49.3741 38.6985 48.8841 38.2086C48.394 37.7187 47.7294 37.4434 47.0363 37.4434C46.637 37.4459 46.2437 37.541 45.8874 37.7212C46.0677 37.365 46.1628 36.9719 46.1653 36.5727C46.1653 35.8798 45.89 35.2154 45.3999 34.7255C44.9098 34.2356 44.2452 33.9603 43.5521 33.9603C42.8591 33.9603 42.1944 34.2356 41.7044 34.7255C41.2143 35.2154 40.939 35.8798 40.939 36.5727ZM42.4032 38.9072C42.7587 39.0898 43.1525 39.185 43.5521 39.185C43.9517 39.185 44.3456 39.0898 44.701 38.9072C44.5184 39.2625 44.4231 39.6563 44.4231 40.0558C44.4231 40.4553 44.5184 40.849 44.701 41.2043C44.3456 41.0217 43.9517 40.9265 43.5521 40.9265C43.1525 40.9265 42.7587 41.0217 42.4032 41.2043C42.5859 40.849 42.6811 40.4553 42.6811 40.0558C42.6811 39.6563 42.5859 39.2625 42.4032 38.9072ZM40.068 40.9265C39.8957 40.9265 39.7273 40.8755 39.584 40.7798C39.4408 40.6841 39.3292 40.5481 39.2632 40.389C39.1973 40.2299 39.18 40.0548 39.2137 39.8859C39.2473 39.717 39.3302 39.5618 39.452 39.44C39.5739 39.3183 39.7291 39.2353 39.898 39.2017C40.067 39.1681 40.2421 39.1854 40.4013 39.2513C40.5605 39.3172 40.6965 39.4288 40.7922 39.572C40.8879 39.7152 40.939 39.8835 40.939 40.0558C40.939 40.2867 40.8472 40.5082 40.6839 40.6715C40.5205 40.8348 40.299 40.9265 40.068 40.9265ZM43.5521 44.4097C43.3799 44.4097 43.2115 44.3586 43.0682 44.2629C42.925 44.1672 42.8133 44.0312 42.7474 43.8721C42.6815 43.713 42.6642 43.5379 42.6978 43.369C42.7314 43.2001 42.8144 43.0449 42.9362 42.9231C43.058 42.8014 43.2132 42.7184 43.3822 42.6848C43.5512 42.6512 43.7263 42.6685 43.8855 42.7344C44.0446 42.8003 44.1807 42.9119 44.2764 43.0551C44.3721 43.1983 44.4232 43.3667 44.4232 43.5389C44.4232 43.7698 44.3314 43.9913 44.1681 44.1546C44.0047 44.3179 43.7832 44.4097 43.5521 44.4097ZM47.0363 39.185C47.2086 39.185 47.377 39.2361 47.5202 39.3317C47.6635 39.4274 47.7751 39.5634 47.841 39.7225C47.907 39.8816 47.9242 40.0567 47.8906 40.2256C47.857 40.3946 47.774 40.5497 47.6522 40.6715C47.5304 40.7933 47.3752 40.8762 47.2062 40.9098C47.0373 40.9434 46.8621 40.9262 46.703 40.8603C46.5438 40.7944 46.4078 40.6827 46.3121 40.5395C46.2163 40.3963 46.1653 40.228 46.1653 40.0558C46.1653 39.8248 46.257 39.6033 46.4204 39.44C46.5837 39.2767 46.8053 39.185 47.0363 39.185ZM44.4232 36.5727C44.4232 36.7449 44.3721 36.9132 44.2764 37.0564C44.1807 37.1996 44.0446 37.3112 43.8855 37.3771C43.7263 37.4431 43.5512 37.4603 43.3822 37.4267C43.2132 37.3931 43.058 37.3102 42.9362 37.1884C42.8144 37.0666 42.7314 36.9115 42.6978 36.7425C42.6642 36.5736 42.6815 36.3985 42.7474 36.2394C42.8133 36.0803 42.925 35.9443 43.0682 35.8486C43.2115 35.753 43.3799 35.7019 43.5521 35.7019C43.7832 35.7019 44.0047 35.7936 44.1681 35.9569C44.3314 36.1202 44.4232 36.3417 44.4232 36.5727Z" fill="#7D12FF"/><path d="M36.5838 23.511V9.57854C36.5838 9.3476 36.492 9.12611 36.3287 8.96281C36.1653 8.79951 35.9438 8.70776 35.7128 8.70776H11.3236C11.0925 8.70776 10.871 8.79951 10.7076 8.96281C10.5443 9.12611 10.4525 9.3476 10.4525 9.57854V23.511C10.4525 23.7419 10.5443 23.9634 10.7076 24.1267C10.871 24.29 11.0925 24.3817 11.3236 24.3817H35.7128C35.9438 24.3817 36.1653 24.29 36.3287 24.1267C36.492 23.9634 36.5838 23.7419 36.5838 23.511ZM34.8417 22.6402H12.1946V10.4493H34.8417V22.6402Z" fill="#7D12FF"/><path d="M19.4182 19.7727L20.6499 18.5414L18.6526 16.5447L20.6499 14.5481L19.4182 13.3168L16.8051 15.9291C16.6418 16.0924 16.55 16.3138 16.55 16.5447C16.55 16.7756 16.6418 16.9971 16.8051 17.1604L19.4182 19.7727Z" fill="#7D12FF"/><path d="M27.6181 19.7727L30.2313 17.1604C30.3946 16.9971 30.4863 16.7756 30.4863 16.5447C30.4863 16.3138 30.3946 16.0924 30.2313 15.9291L27.6181 13.3168L26.3865 14.5481L28.3838 16.5447L26.3865 18.5414L27.6181 19.7727Z" fill="#7D12FF"/><path d="M24.4357 11.9158L21.8201 19.7521L23.4718 20.303L26.0874 12.4667L24.4357 11.9158Z" fill="#7D12FF"/></svg>