<svg width="54" height="54" viewBox="0 0 54 54" fill="none" xmlns="http://www.w3.org/2000/svg"><path d="M46.5401 14.3426C45.5175 14.3426 44.5216 14.556 43.5968 14.9472V1.50269C43.5968 0.675762 42.9299 0 42.094 0H25.7686C24.0791 0 23.9546 2.04517 24.7727 2.62313C25.7153 3.47674 26.2754 4.68604 26.2754 5.94871C26.2754 8.4028 24.2748 10.4125 21.8116 10.4125C19.3575 10.4125 17.3478 8.41188 17.3478 5.94871C17.3478 4.68604 17.8902 3.46794 18.8505 2.62313C19.6154 2.05397 19.6421 0 17.8548 0H1.50269C0.675763 0 0 0.666821 0 1.50269V42.0939C0 42.9208 0.666823 43.5966 1.50269 43.5966H14.9471C14.5559 44.5213 14.3425 45.5173 14.3425 46.5398C14.3425 50.6567 17.6947 54 21.8027 54C25.9106 54 29.2629 50.6477 29.2629 46.5398C29.2629 45.5173 29.0494 44.5213 28.6583 43.5966H42.0939C42.9208 43.5966 43.5966 42.9298 43.5966 42.0939V28.6495C44.5213 29.0407 45.5173 29.2542 46.5398 29.2542C50.6567 29.2542 54 25.9019 54 21.794C54.0003 17.6947 50.6569 14.3426 46.5401 14.3426ZM46.5401 26.2576C45.2774 26.2576 44.0593 25.7153 43.2145 24.7549C42.7254 23.9547 40.5913 23.928 40.5913 25.7507V40.5912H25.7686C24.1324 40.5912 23.8124 42.6097 24.7727 43.2144C25.7153 44.068 26.2754 45.2773 26.2754 46.5399C26.2754 48.994 24.2748 51.0037 21.8116 51.0037C19.3575 51.0037 17.3478 49.0031 17.3478 46.5399C17.3478 45.2773 17.8902 44.0592 18.8505 43.2144C19.5886 42.8142 19.7131 40.5912 17.8547 40.5912H3.00552V3.00551H14.9562C14.565 3.93023 14.3515 4.9262 14.3515 5.94871C14.3515 10.0656 17.7038 13.4089 21.8118 13.4089C25.9199 13.4089 29.272 10.0566 29.272 5.94871C29.272 4.9262 29.0585 3.93023 28.6673 3.00551H40.6091V17.846C40.6091 19.5976 42.7076 19.6777 43.2322 18.8418C44.0858 17.8992 45.2951 17.3391 46.5578 17.3391C49.0119 17.3391 51.0216 19.3397 51.0216 21.8029C51.0037 24.2658 49.0031 26.2576 46.5401 26.2576Z" fill="#7D12FF"/></svg>