<svg width="54" height="54" viewBox="0 0 54 54" fill="none" xmlns="http://www.w3.org/2000/svg"><path d="M16.2965 21.2144C17.5326 21.2177 18.7502 20.9146 19.8406 20.3324C20.9309 19.7502 21.8601 18.907 22.545 17.878L23.085 17.0487C23.4196 16.548 23.873 16.138 24.4047 15.8553C24.9365 15.5726 25.53 15.426 26.1322 15.4287H27.8679C28.4701 15.426 29.0636 15.5726 29.5953 15.8553C30.1271 16.138 30.5805 16.548 30.915 17.0487L31.455 17.878C32.5128 19.413 34.1028 20.5006 35.9169 20.9297C37.731 21.3589 39.6398 21.0991 41.2732 20.2008C42.9067 19.3024 44.1483 17.8295 44.7573 16.0676C45.3663 14.3057 45.2993 12.3805 44.5693 10.6652L41.3679 3.49092C40.9166 2.44631 40.1672 1.558 39.2136 0.937108C38.2599 0.31622 37.1444 -0.00966759 36.0065 0.000218432H17.9936C16.8557 -0.00966759 15.7402 0.31622 14.7865 0.937108C13.8329 1.558 13.0835 2.44631 12.6322 3.49092L9.43076 10.6652C8.92794 11.8085 8.71777 13.0591 8.81923 14.304C8.92068 15.5489 9.33057 16.7489 10.0119 17.7958C10.6932 18.8426 11.6245 19.7033 12.7217 20.3002C13.8189 20.897 15.0474 21.2112 16.2965 21.2144ZM12.96 12.2273L16.1422 5.05306C16.3075 4.68395 16.5795 4.3728 16.9233 4.15969C17.267 3.94658 17.6666 3.84128 18.0708 3.85735H36.0836C36.4877 3.84128 36.8874 3.94658 37.2311 4.15969C37.5748 4.3728 37.8469 4.68395 38.0122 5.05306L41.1943 12.2273C41.4425 12.7825 41.5478 13.391 41.5006 13.9973C41.4535 14.6037 41.2554 15.1886 40.9243 15.6987C40.5951 16.2118 40.1411 16.6331 39.6048 16.9231C39.0686 17.2132 38.4676 17.3626 37.8579 17.3573C37.2404 17.3709 36.6293 17.2298 36.0802 16.9468C35.5312 16.6639 35.0616 16.2481 34.7143 15.7373L34.1743 14.908C33.484 13.8708 32.5456 13.0224 31.4444 12.4398C30.3431 11.8572 29.1137 11.5588 27.8679 11.5716H26.1322C24.8961 11.5684 23.6785 11.8714 22.5881 12.4536C21.4977 13.0358 20.5686 13.8791 19.8836 14.908L19.3436 15.7373C19.0091 16.238 18.5556 16.6481 18.0239 16.9308C17.4922 17.2135 16.8987 17.36 16.2965 17.3573C15.6868 17.3626 15.0858 17.2132 14.5495 16.9231C14.0133 16.6331 13.5593 16.2118 13.23 15.6987C12.899 15.1886 12.7009 14.6037 12.6537 13.9973C12.6066 13.391 12.7119 12.7825 12.96 12.2273Z" fill="#7D12FF"/><path d="M19.2857 9.64308H21.2143C21.7258 9.64308 22.2163 9.43989 22.578 9.07821C22.9397 8.71654 23.1429 8.226 23.1429 7.71451C23.1429 7.20303 22.9397 6.71249 22.578 6.35081C22.2163 5.98914 21.7258 5.78595 21.2143 5.78595H19.2857C18.7743 5.78595 18.2837 5.98914 17.922 6.35081C17.5604 6.71249 17.3572 7.20303 17.3572 7.71451C17.3572 8.226 17.5604 8.71654 17.922 9.07821C18.2837 9.43989 18.7743 9.64308 19.2857 9.64308Z" fill="#7D12FF"/><path d="M32.7857 9.64308H34.7143C35.2258 9.64308 35.7164 9.43989 36.078 9.07821C36.4397 8.71654 36.6429 8.226 36.6429 7.71451C36.6429 7.20303 36.4397 6.71249 36.078 6.35081C35.7164 5.98914 35.2258 5.78595 34.7143 5.78595H32.7857C32.2743 5.78595 31.7837 5.98914 31.422 6.35081C31.0604 6.71249 30.8572 7.20303 30.8572 7.71451C30.8572 8.226 31.0604 8.71654 31.422 9.07821C31.7837 9.43989 32.2743 9.64308 32.7857 9.64308Z" fill="#7D12FF"/><path d="M49.5257 5.78595C49.0142 5.78595 48.5237 5.98914 48.162 6.35081C47.8003 6.71249 47.5971 7.20303 47.5971 7.71451C47.5971 8.226 47.8003 8.71654 48.162 9.07821C48.5237 9.43989 49.0142 9.64308 49.5257 9.64308C49.6894 9.64308 49.8464 9.7081 49.9621 9.82383C50.0778 9.93957 50.1429 10.0965 50.1429 10.2602V32.7858H3.85714V10.2602C3.85714 10.0965 3.92216 9.93957 4.0379 9.82383C4.15364 9.7081 4.31061 9.64308 4.47429 9.64308C4.98577 9.64308 5.47631 9.43989 5.83799 9.07821C6.19967 8.71654 6.40286 8.226 6.40286 7.71451C6.40286 7.20303 6.19967 6.71249 5.83799 6.35081C5.47631 5.98914 4.98577 5.78595 4.47429 5.78595C3.28763 5.78595 2.14958 6.25734 1.31049 7.09643C0.471397 7.93552 0 9.07357 0 10.2602V39.883C0 41.0696 0.471397 42.2077 1.31049 43.0467C2.14958 43.8858 3.28763 44.3572 4.47429 44.3572H18.36L16.0457 50.1429H15.4286C14.9171 50.1429 14.4265 50.3461 14.0649 50.7078C13.7032 51.0695 13.5 51.56 13.5 52.0715C13.5 52.583 13.7032 53.0735 14.0649 53.4352C14.4265 53.7969 14.9171 54 15.4286 54H38.5714C39.0829 54 39.5735 53.7969 39.9351 53.4352C40.2968 53.0735 40.5 52.583 40.5 52.0715C40.5 51.56 40.2968 51.0695 39.9351 50.7078C39.5735 50.3461 39.0829 50.1429 38.5714 50.1429H37.9543L35.64 44.3572H49.5257C50.7124 44.3572 51.8504 43.8858 52.6895 43.0467C53.5286 42.2077 54 41.0696 54 39.883V10.2602C54 9.07357 53.5286 7.93552 52.6895 7.09643C51.8504 6.25734 50.7124 5.78595 49.5257 5.78595ZM33.7886 50.1429H20.2886L22.6029 44.3572H31.5514L33.7886 50.1429ZM49.5257 40.5001H4.47429C4.31061 40.5001 4.15364 40.4351 4.0379 40.3193C3.92216 40.2036 3.85714 40.0466 3.85714 39.883V36.643H50.1429V39.883C50.1429 40.0466 50.0778 40.2036 49.9621 40.3193C49.8464 40.4351 49.6894 40.5001 49.5257 40.5001Z" fill="#7D12FF"/></svg>